Coordinates
version=1
nRows=10
nColumns=34
inDegrees=yes

Units are S.I. units (second, meters, Newtons, ...)
Angles are in degrees.

endheader
time	pelvis_tilt	pelvis_list	pelvis_rotation	pelvis_tx	pelvis_ty	pelvis_tz	hip_flexion_r	hip_adduction_r	hip_rotation_r	knee_angle_r	ankle_angle_r	subtalar_angle_r	mtp_angle_r	hip_flexion_l	hip_adduction_l	hip_rotation_l	knee_angle_l	socket_flexion	socket_adduction	socket_rotation	socket_tx	socket_ty	socket_tz	pros_ankle_rx	pros_ankle_ry	pros_ankle_rz	pros_ankle_tx	pros_ankle_ty	pros_ankle_tz	foot_flex	lumbar_extension	lumbar_bending	lumbar_rotation
      0.29583333	      2.94848960	     -4.35834708	     -0.04534439	     -0.36181144	      1.05120140	      0.37072889	      7.11459807	      0.34885675	     -9.70358375	    -61.78505589	     -0.30759214	      6.20453831	     15.95983546	     10.89511861	     -4.07913462	      0.71308642	    -23.96384003	      0.00000000	      0.00000000	      0.00000000	      0.00000000	     -0.00168056	      0.00000000	      0.00000000	      0.00000000	      0.00000000	      0.00000000	      0.00000000	      0.00000000	      5.55803217	    -23.45973293	     -6.69792428	      1.44973869
      0.30000000	      3.01011796	     -4.48379010	      0.00898911	     -0.35625108	      1.05202710	      0.37044492	      7.56832496	      0.47695966	     -9.82266031	    -61.56145890	      0.48137894	      6.11892057	     15.98267440	     10.37628942	     -4.19673474	      0.73942606	    -23.75645740	      0.00000000	      0.00000000	      0.00000000	      0.00000000	     -0.00171246	      0.00000000	      0.00000000	      0.00000000	      0.00000000	      0.00000000	      0.00000000	      0.00000000	      5.72249433	    -23.39920904	     -6.48690451	      1.38392881
      0.30416667	      3.06822880	     -4.63865353	      0.07060577	     -0.35080671	      1.05282766	      0.37015967	      8.02324952	      0.65385033	     -9.93216130	    -61.28540730	      1.32056114	      6.15393765	     16.00497555	      9.88358135	     -4.34580137	      0.78201897	    -23.56647182	      0.00000000	      0.00000000	      0.00000000	      0.00000000	     -0.00174662	      0.00000000	      0.00000000	      0.00000000	      0.00000000	      0.00000000	      0.00000000	      0.00000000	      5.87772973	    -23.41507710	     -6.24586324	      1.30189599
      0.30833333	      3.12534908	     -4.78807163	      0.12969007	     -0.34533450	      1.05361652	      0.36986170	      8.46218804	      0.80445027	    -10.07072220	    -60.95702264	      2.10947124	      6.25150371	     16.01336809	      9.38706713	     -4.48808265	      0.82481075	    -23.37924348	      0.00000000	      0.00000000	      0.00000000	      0.00000000	     -0.00177375	      0.00000000	      0.00000000	      0.00000000	      0.00000000	      0.00000000	      0.00000000	      0.00000000	      6.02855161	    -23.41710402	     -6.00863788	      1.21254391
      0.31250000	      3.19009709	     -4.93988487	      0.19832390	     -0.33989566	      1.05440607	      0.36954048	      8.88177942	      0.95546151	    -10.22572945	    -60.57643908	      2.88185592	      6.38212742	     16.00979876	      8.88577016	     -4.63260358	      0.86961802	    -23.18717737	      0.00000000	      0.00000000	      0.00000000	      0.00000000	     -0.00179056	      0.00000000	      0.00000000	      0.00000000	      0.00000000	      0.00000000	      0.00000000	      0.00000000	      6.17140544	    -23.42291508	     -5.76080699	      1.12361432
      0.31666667	      3.24623056	     -5.09471013	      0.26649444	     -0.33446788	      1.05518176	      0.36924837	      9.29420198	      1.10779297	    -10.39601019	    -60.13891754	      3.60131748	      6.52700298	     15.99068981	      8.39294448	     -4.78376244	      0.91417633	    -22.99308045	      0.00000000	      0.00000000	      0.00000000	      0.00000000	     -0.00178668	      0.00000000	      0.00000000	      0.00000000	      0.00000000	      0.00000000	      0.00000000	      0.00000000	      6.31496128	    -23.43295105	     -5.52647696	      1.03116297
      0.32083333	      3.31194954	     -5.25172474	      0.34324241	     -0.32907558	      1.05595755	      0.36893370	      9.68125772	      1.26584054	    -10.57019386	    -59.64486842	      4.31926386	      6.69718769	     15.94924438	      7.90020003	     -4.93625527	      0.96295625	    -22.80423300	      0.00000000	      0.00000000	      0.00000000	      0.00000000	     -0.00176500	      0.00000000	      0.00000000	      0.00000000	      0.00000000	      0.00000000	      0.00000000	      0.00000000	      6.44451274	    -23.45217119	     -5.26461974	      0.93540257
      0.32500000	      3.35469573	     -5.39749479	      0.41121757	     -0.32366815	      1.05669850	      0.36865540	     10.08079119	      1.40470141	    -10.75959114	    -59.10544007	      4.91209595	      6.82890119	     15.90237192	      7.42619778	     -5.08031338	      0.99993284	    -22.60952338	      0.00000000	      0.00000000	      0.00000000	      0.00000000	     -0.00171156	      0.00000000	      0.00000000	      0.00000000	      0.00000000	      0.00000000	      0.00000000	      0.00000000	      6.58473078	    -23.46364072	     -5.05666833	      0.85425173
      0.32916667	      3.41862111	     -5.57094325	      0.49763945	     -0.31829239	      1.05744370	      0.36832521	     10.43299252	      1.58873922	    -10.94530144	    -58.49820401	      5.59078359	      7.00250060	     15.82686194	      6.93898563	     -5.25283570	      1.05057673	    -22.42148373	      0.00000000	      0.00000000	      0.00000000	      0.00000000	     -0.00169762	      0.00000000	      0.00000000	      0.00000000	      0.00000000	      0.00000000	      0.00000000	      0.00000000	      6.70269512	    -23.47427116	     -4.76642358	      0.75650196
      0.33333333	      3.47749790	     -5.73435420	      0.58280431	     -0.31294312	      1.05818571	      0.36801239	     10.77932092	      1.75661638	    -11.14387424	    -57.84411860	      6.17801490	      7.17046341	     15.72289625	      6.46167504	     -5.41617744	      1.09918367	    -22.23692014	      0.00000000	      0.00000000	      0.00000000	      0.00000000	     -0.00162372	      0.00000000	      0.00000000	      0.00000000	      0.00000000	      0.00000000	      0.00000000	      0.00000000	      6.82427834	    -23.50143893	     -4.50630031	      0.66293812
